HIERARCHY
ROOT mixamorig:Hips
{
	OFFSET 0.000000 104.274902 0.000000
	CHANNELS 6 Xposition Yposition Zposition Xrotation Yrotation Zrotation
	JOINT mixamorig:Spine
	{
		OFFSET 0.000000 10.181549 0.131524
		CHANNELS 6 Xposition Yposition Zposition Xrotation Yrotation Zrotation
		JOINT mixamorig:Spine1
		{
			OFFSET 0.000000 9.893990 -1.470706
			CHANNELS 3 Xrotation Yrotation Zrotation
			JOINT mixamorig:Spine2
			{
				OFFSET 0.000000 9.220787 -1.370637
				CHANNELS 3 Xrotation Yrotation Zrotation
				JOINT mixamorig:Neck
				{
					OFFSET 0.000000 16.740372 -2.049022
					CHANNELS 6 Xposition Yposition Zposition Xrotation Yrotation Zrotation
					JOINT mixamorig:Head
					{
						OFFSET 0.000000 9.617859 1.684976
						CHANNELS 6 Xposition Yposition Zposition Xrotation Yrotation Zrotation
						JOINT mixamorig:HeadTop_End
						{
							OFFSET 0.000000 22.037384 7.501072
							CHANNELS 6 Xposition Yposition Zposition Xrotation Yrotation Zrotation
							End Site
							{
								OFFSET 0.000000 23.106567 -2.828246
							}
						}
					}
				}
				JOINT mixamorig:RightShoulder
				{
					OFFSET -4.570000 11.014877 -2.160840
					CHANNELS 6 Xposition Yposition Zposition Xrotation Yrotation Zrotation
					JOINT mixamorig:RightArm
					{
						OFFSET -10.592867 -0.524796 -2.232105
						CHANNELS 3 Xrotation Yrotation Zrotation
						JOINT mixamorig:RightForeArm
						{
							OFFSET -27.841497 0.000000 -0.000002
							CHANNELS 3 Xrotation Yrotation Zrotation
							JOINT mixamorig:RightHand
							{
								OFFSET -28.328812 0.000000 -0.000001
								CHANNELS 3 Xrotation Yrotation Zrotation
								JOINT mixamorig:RightHandThumb1
								{
									OFFSET -2.464798 -1.573990 2.681911
									CHANNELS 6 Xposition Yposition Zposition Xrotation Yrotation Zrotation
									JOINT mixamorig:RightHandThumb2
									{
										OFFSET -3.244781 -1.873383 1.873376
										CHANNELS 3 Xrotation Yrotation Zrotation
										JOINT mixamorig:RightHandThumb3
										{
											OFFSET -2.646263 -1.527817 1.527818
											CHANNELS 6 Xposition Yposition Zposition Xrotation Yrotation Zrotation
											JOINT mixamorig:RightHandThumb4
											{
												OFFSET -1.994591 -1.151581 1.151575
												CHANNELS 6 Xposition Yposition Zposition Xrotation Yrotation Zrotation
												End Site
												{
													OFFSET -1.860176 -1.142715 1.365483
												}
											}
										}
									}
								}
								JOINT mixamorig:RightHandIndex1
								{
									OFFSET -9.108299 -0.517883 2.259803
									CHANNELS 6 Xposition Yposition Zposition Xrotation Yrotation Zrotation
									JOINT mixamorig:RightHandIndex2
									{
										OFFSET -3.699997 0.000000 0.000000
										CHANNELS 3 Xrotation Yrotation Zrotation
										JOINT mixamorig:RightHandIndex3
										{
											OFFSET -2.850006 0.000000 0.000000
											CHANNELS 3 Xrotation Yrotation Zrotation
											JOINT mixamorig:RightHandIndex4
											{
												OFFSET -2.772194 0.000000 0.000000
												CHANNELS 3 Xrotation Yrotation Zrotation
												End Site
												{
													OFFSET -2.772202 0.000000 -0.000484
												}
											}
										}
									}
								}
								JOINT mixamorig:RightHandMiddle1
								{
									OFFSET -9.532501 0.000000 -0.000000
									CHANNELS 6 Xposition Yposition Zposition Xrotation Yrotation Zrotation
									JOINT mixamorig:RightHandMiddle2
									{
										OFFSET -3.699997 0.000000 0.000000
										CHANNELS 3 Xrotation Yrotation Zrotation
										JOINT mixamorig:RightHandMiddle3
										{
											OFFSET -2.949997 0.000000 0.000000
											CHANNELS 3 Xrotation Yrotation Zrotation
											JOINT mixamorig:RightHandMiddle4
											{
												OFFSET -2.946594 0.000000 0.000000
												CHANNELS 3 Xrotation Yrotation Zrotation
												End Site
												{
													OFFSET -2.946602 0.000000 -0.000982
												}
											}
										}
									}
								}
								JOINT mixamorig:RightHandRing1
								{
									OFFSET -9.103600 -0.043106 -1.865100
									CHANNELS 6 Xposition Yposition Zposition Xrotation Yrotation Zrotation
									JOINT mixamorig:RightHandRing2
									{
										OFFSET -3.379303 0.000000 0.000000
										CHANNELS 3 Xrotation Yrotation Zrotation
										JOINT mixamorig:RightHandRing3
										{
											OFFSET -2.889694 0.000000 0.000000
											CHANNELS 3 Xrotation Yrotation Zrotation
											JOINT mixamorig:RightHandRing4
											{
												OFFSET -2.638802 0.000000 0.000000
												CHANNELS 3 Xrotation Yrotation Zrotation
												End Site
												{
													OFFSET -2.638802 0.000000 0.004218
												}
											}
										}
									}
								}
								JOINT mixamorig:RightHandPinky1
								{
									OFFSET -8.076698 -0.486725 -3.806299
									CHANNELS 6 Xposition Yposition Zposition Xrotation Yrotation Zrotation
									JOINT mixamorig:RightHandPinky2
									{
										OFFSET -3.600006 0.000000 0.000000
										CHANNELS 3 Xrotation Yrotation Zrotation
										JOINT mixamorig:RightHandPinky3
										{
											OFFSET -2.099998 0.000000 0.000000
											CHANNELS 3 Xrotation Yrotation Zrotation
											JOINT mixamorig:RightHandPinky4
											{
												OFFSET -2.115791 0.000000 0.000000
												CHANNELS 3 Xrotation Yrotation Zrotation
												End Site
												{
													OFFSET -2.115799 0.000000 0.000174
												}
											}
										}
									}
								}
							}
						}
					}
				}
				JOINT mixamorig:LeftShoulder
				{
					OFFSET 4.570400 11.014679 -2.160816
					CHANNELS 6 Xposition Yposition Zposition Xrotation Yrotation Zrotation
					JOINT mixamorig:LeftArm
					{
						OFFSET 10.592373 -0.524597 -2.232116
						CHANNELS 3 Xrotation Yrotation Zrotation
						JOINT mixamorig:LeftForeArm
						{
							OFFSET 27.841488 0.000000 0.000001
							CHANNELS 3 Xrotation Yrotation Zrotation
							JOINT mixamorig:LeftHand
							{
								OFFSET 28.328808 0.000000 -0.000000
								CHANNELS 3 Xrotation Yrotation Zrotation
								JOINT mixamorig:LeftHandThumb1
								{
									OFFSET 2.466103 -1.576202 2.681698
									CHANNELS 6 Xposition Yposition Zposition Xrotation Yrotation Zrotation
									JOINT mixamorig:LeftHandThumb2
									{
										OFFSET 3.243317 -1.872528 1.872530
										CHANNELS 3 Xrotation Yrotation Zrotation
										JOINT mixamorig:LeftHandThumb3
										{
											OFFSET 2.647881 -1.528763 1.528754
											CHANNELS 6 Xposition Yposition Zposition Xrotation Yrotation Zrotation
											JOINT mixamorig:LeftHandThumb4
											{
												OFFSET 1.998924 -1.154083 1.154080
												CHANNELS 6 Xposition Yposition Zposition Xrotation Yrotation Zrotation
												End Site
												{
													OFFSET 1.884041 -1.149155 1.337651
												}
											}
										}
									}
								}
								JOINT mixamorig:LeftHandIndex1
								{
									OFFSET 9.109299 -0.518005 2.259900
									CHANNELS 6 Xposition Yposition Zposition Xrotation Yrotation Zrotation
									JOINT mixamorig:LeftHandIndex2
									{
										OFFSET 3.699997 0.000000 0.000000
										CHANNELS 3 Xrotation Yrotation Zrotation
										JOINT mixamorig:LeftHandIndex3
										{
											OFFSET 2.850006 0.000000 0.000000
											CHANNELS 3 Xrotation Yrotation Zrotation
											JOINT mixamorig:LeftHandIndex4
											{
												OFFSET 2.774895 0.000000 0.000000
												CHANNELS 3 Xrotation Yrotation Zrotation
												End Site
												{
													OFFSET 2.774902 0.000000 -0.000072
												}
											}
										}
									}
								}
								JOINT mixamorig:LeftHandMiddle1
								{
									OFFSET 9.533401 0.000000 0.000000
									CHANNELS 6 Xposition Yposition Zposition Xrotation Yrotation Zrotation
									JOINT mixamorig:LeftHandMiddle2
									{
										OFFSET 3.699997 0.000000 0.000000
										CHANNELS 3 Xrotation Yrotation Zrotation
										JOINT mixamorig:LeftHandMiddle3
										{
											OFFSET 2.949997 0.000000 0.000000
											CHANNELS 3 Xrotation Yrotation Zrotation
											JOINT mixamorig:LeftHandMiddle4
											{
												OFFSET 2.952896 0.000000 0.000000
												CHANNELS 3 Xrotation Yrotation Zrotation
												End Site
												{
													OFFSET 2.952904 0.000000 0.000165
												}
											}
										}
									}
								}
								JOINT mixamorig:LeftHandRing1
								{
									OFFSET 9.104500 -0.042999 -1.865101
									CHANNELS 6 Xposition Yposition Zposition Xrotation Yrotation Zrotation
									JOINT mixamorig:LeftHandRing2
									{
										OFFSET 3.149994 0.000000 0.000000
										CHANNELS 3 Xrotation Yrotation Zrotation
										JOINT mixamorig:LeftHandRing3
										{
											OFFSET 2.950005 0.000000 0.000000
											CHANNELS 3 Xrotation Yrotation Zrotation
											JOINT mixamorig:LeftHandRing4
											{
												OFFSET 2.644302 0.000000 0.000000
												CHANNELS 3 Xrotation Yrotation Zrotation
												End Site
												{
													OFFSET 2.644302 0.000000 0.000083
												}
											}
										}
									}
								}
								JOINT mixamorig:LeftHandPinky1
								{
									OFFSET 8.077805 -0.486893 -3.806302
									CHANNELS 6 Xposition Yposition Zposition Xrotation Yrotation Zrotation
									JOINT mixamorig:LeftHandPinky2
									{
										OFFSET 3.600006 0.000000 0.000000
										CHANNELS 3 Xrotation Yrotation Zrotation
										JOINT mixamorig:LeftHandPinky3
										{
											OFFSET 2.099998 0.000000 0.000000
											CHANNELS 3 Xrotation Yrotation Zrotation
											JOINT mixamorig:LeftHandPinky4
											{
												OFFSET 2.125496 0.000000 0.000000
												CHANNELS 3 Xrotation Yrotation Zrotation
												End Site
												{
													OFFSET 2.125504 0.000000 -0.001254
												}
											}
										}
									}
								}
							}
						}
					}
				}
			}
		}
	}
	JOINT mixamorig:RightUpLeg
	{
		OFFSET -8.207800 -6.751701 -1.599544
		CHANNELS 6 Xposition Yposition Zposition Xrotation Yrotation Zrotation
		JOINT mixamorig:RightLeg
		{
			OFFSET 0.000004 -44.370152 0.345934
			CHANNELS 3 Xrotation Yrotation Zrotation
			JOINT mixamorig:RightFoot
			{
				OFFSET 0.000004 -44.423664 -3.043535
				CHANNELS 3 Xrotation Yrotation Zrotation
				JOINT mixamorig:RightToeBase
				{
					OFFSET 0.000001 -8.728691 10.710592
					CHANNELS 3 Xrotation Yrotation Zrotation
					JOINT mixamorig:RightToe_End
					{
						OFFSET 0.000000 -0.000665 9.278101
						CHANNELS 3 Xrotation Yrotation Zrotation
						End Site
						{
							OFFSET 0.000000 -0.000665 9.278103
						}
					}
				}
			}
		}
	}
	JOINT mixamorig:LeftUpLeg
	{
		OFFSET 8.207800 -6.751701 -1.599544
		CHANNELS 6 Xposition Yposition Zposition Xrotation Yrotation Zrotation
		JOINT mixamorig:LeftLeg
		{
			OFFSET 0.000004 -44.370037 0.346940
			CHANNELS 3 Xrotation Yrotation Zrotation
			JOINT mixamorig:LeftFoot
			{
				OFFSET 0.000004 -44.423611 -3.044388
				CHANNELS 3 Xrotation Yrotation Zrotation
				JOINT mixamorig:LeftToeBase
				{
					OFFSET 0.000001 -8.728690 10.710592
					CHANNELS 3 Xrotation Yrotation Zrotation
					JOINT mixamorig:LeftToe_End
					{
						OFFSET 0.000000 -0.000680 9.278101
						CHANNELS 3 Xrotation Yrotation Zrotation
						End Site
						{
							OFFSET 0.000000 -0.000680 9.278101
						}
					}
				}
			}
		}
	}
}
MOTION
Frames: 4
Frame Time: 0.033333
6.170525 79.187073 -9.186474 37.221000 -52.687427 25.264130 0.000001 10.181553 0.131527 19.604933 2.572717 -5.005033 19.342869 1.644766 -6.186452 19.337539 1.654498 -6.223487 0.000002 16.740368 -2.049022 7.725048 0.611720 0.547116 0.000000 9.617850 1.684975 -18.837266 24.009027 -4.854250 -0.000004 22.037369 7.501069 -0.000003 0.000000 -0.000000 -4.569998 11.014871 -2.160835 11.285224 28.384934 2.438171 -58.583721 23.117634 49.798223 0.000229 101.976316 -0.000190 -18.283091 -4.038109 -12.895780 -2.464794 -1.573987 2.681920 -7.341116 13.749643 7.412345 9.855773 -44.489107 -3.903159 -2.646267 -1.527801 1.527817 -0.115744 -14.513035 -28.973888 -1.994585 -1.151576 1.151572 0.000003 0.000003 -0.000002 -9.108310 -0.517881 2.259808 -0.124365 -2.384773 45.108868 4.500562 -4.654522 88.071178 1.723207 -3.618371 50.920129 -0.000000 0.000001 -0.000001 -9.532486 0.000010 0.000008 -0.761625 -2.932896 39.031058 5.133872 -4.632755 95.881670 1.739747 -3.631687 51.181357 0.000001 0.000003 -0.000000 -9.103593 -0.043103 -1.865098 0.154758 -4.068804 39.122682 6.509702 -4.273582 113.462863 2.549560 -4.153916 63.067337 -0.000001 -0.000000 -0.000000 -8.076685 -0.486730 -3.806288 -4.198886 -8.025509 44.637762 4.252905 -4.639642 85.014846 6.935979 -4.062628 119.322285 -0.000000 0.000002 0.000006 4.570403 11.014681 -2.160812 -2.282671 -7.390246 0.353728 -33.837136 -14.202774 -60.805431 -0.000052 -95.807460 -0.000043 3.061395 -2.207320 3.548105 2.466106 -1.576223 2.681680 -6.141114 -11.690716 -6.761668 9.914074 42.595515 3.409808 2.647888 -1.528747 1.528751 -0.422780 8.108089 27.509118 1.998909 -1.154073 1.154068 -0.000004 -0.000002 -0.000000 9.109291 -0.518008 2.259886 0.255270 3.378300 -45.814341 5.654092 5.847945 -88.067448 2.162103 4.544913 -50.866362 0.000001 0.000002 0.000000 9.533412 0.000009 -0.000019 -0.461506 3.841668 -39.722673 6.450765 5.820557 -95.892885 2.182864 4.561666 -51.127716 0.000001 0.000004 -0.000001 9.104509 -0.043000 -1.865121 0.469685 4.966898 -39.799427 8.181090 5.368848 -113.502998 3.200473 5.218253 -63.022982 -0.000000 -0.000002 -0.000002 8.077799 -0.486891 -3.806315 -3.762461 9.063785 -45.253797 5.342517 5.829161 -85.005297 8.716893 5.103537 -119.369194 -0.000001 0.000002 0.000001 -8.207806 -6.751715 -1.599531 -70.431012 -6.301102 -22.238845 75.848527 0.046250 3.722024 -23.835601 -0.949247 5.396319 -0.046664 0.000026 0.000000 0.000000 0.000001 0.000000 8.207796 -6.751702 -1.599550 -68.566022 -11.474055 24.440609 72.562250 10.347731 1.963862 -20.878198 -9.124089 -24.627593 -1.604324 0.000008 0.000006 0.000000 -0.000002 0.000000 
6.278120 80.166771 -7.568445 34.695640 -54.770642 24.012751 -0.000001 10.181541 0.131521 18.655871 2.556225 -4.845665 18.881737 1.722389 -6.168547 18.873851 1.725552 -6.213254 0.000003 16.740372 -2.049029 8.012075 1.009641 0.708823 -0.000003 9.617854 1.684975 -18.632396 25.181318 -4.265771 0.000002 22.037369 7.501082 0.000001 -0.000003 -0.000001 -4.570000 11.014881 -2.160848 11.298573 28.138419 2.036687 -56.019067 22.395113 49.862030 0.000200 104.294414 -0.000157 -17.013373 -2.967101 -11.581638 -2.464796 -1.574015 2.681926 -7.341116 13.749641 7.412342 9.855773 -44.489107 -3.903153 -2.646267 -1.527801 1.527814 -0.115744 -14.513039 -28.973888 -1.994613 -1.151583 1.151573 0.000000 -0.000004 0.000003 -9.108306 -0.517873 2.259822 -0.124364 -2.384774 45.108868 4.500561 -4.654524 88.071178 1.723206 -3.618371 50.920126 -0.000000 -0.000000 -0.000000 -9.532504 0.000002 0.000012 -0.761625 -2.932898 39.031065 5.133872 -4.632756 95.881670 1.739747 -3.631685 51.181350 -0.000000 0.000000 0.000001 -9.103593 -0.043111 -1.865084 0.154758 -4.068806 39.122675 6.509703 -4.273581 113.462863 2.549561 -4.153918 63.067330 0.000001 -0.000001 -0.000001 -8.076704 -0.486727 -3.806288 -4.198886 -8.025507 44.637759 4.252908 -4.639640 85.014839 6.935980 -4.062627 119.322285 0.000001 0.000000 -0.000004 4.570401 11.014697 -2.160823 -2.185939 -7.564610 0.489768 -32.830947 -15.790468 -54.731785 0.000113 -94.481911 0.000130 1.923940 -5.126113 3.403495 2.466110 -1.576219 2.681699 -6.141114 -11.690716 -6.761670 9.914078 42.595512 3.409813 2.647873 -1.528743 1.528751 -0.422781 8.108095 27.509116 1.998928 -1.154076 1.154075 -0.000000 -0.000003 -0.000002 9.109295 -0.518008 2.259903 0.255269 3.378301 -45.814341 5.654092 5.847944 -88.067441 2.162102 4.544914 -50.866359 0.000000 -0.000001 0.000001 9.533422 0.000005 0.000007 -0.461507 3.841670 -39.722673 6.450764 5.820562 -95.892885 2.182868 4.561669 -51.127712 0.000002 0.000000 0.000001 9.104516 -0.043004 -1.865103 0.469685 4.966902 -39.799427 8.181090 5.368843 -113.503004 3.200477 5.218253 -63.022982 0.000001 0.000001 -0.000000 8.077806 -0.486880 -3.806297 -3.762463 9.063786 -45.253797 5.342518 5.829160 -85.005297 8.716898 5.103540 -119.369194 0.000000 0.000001 -0.000004 -8.207808 -6.751698 -1.599546 -66.750961 -5.597793 -21.669419 73.668959 0.259273 2.475489 -23.055862 -1.340994 6.775727 -0.045323 -0.000031 -0.000005 0.000000 0.000000 0.000000 8.207796 -6.751692 -1.599559 -65.180598 -9.155142 24.792890 72.491434 10.329220 1.487034 -22.081915 -8.977380 -23.475743 -1.606249 -0.000005 -0.000005 0.000000 -0.000000 0.000000 
6.109104 81.285851 -5.858946 30.752616 -56.170325 21.728662 -0.000003 10.181553 0.131528 17.713105 2.395766 -4.491536 18.322464 1.730531 -5.975350 18.309241 1.748230 -6.034748 0.000000 16.740358 -2.049011 8.799865 1.317372 0.162050 -0.000002 9.617844 1.684981 -18.328714 25.651137 -3.558507 0.000000 22.037369 7.501069 0.000003 -0.000002 -0.000001 -4.569998 11.014888 -2.160830 11.183907 27.634455 1.993436 -53.405355 22.508866 49.649427 0.000212 105.458483 -0.000159 -16.473918 -0.487944 -12.900328 -2.464796 -1.574005 2.681900 -7.341118 13.749644 7.412345 9.855773 -44.489103 -3.903161 -2.646259 -1.527804 1.527820 -0.115744 -14.513035 -28.973891 -1.994586 -1.151583 1.151571 -0.000000 -0.000004 -0.000002 -9.108306 -0.517877 2.259800 -0.124365 -2.384774 45.108868 4.500562 -4.654523 88.071178 1.723206 -3.618372 50.920129 -0.000000 0.000000 0.000000 -9.532490 0.000002 -0.000005 -0.761626 -2.932897 39.031065 5.133874 -4.632755 95.881670 1.739748 -3.631686 51.181350 0.000000 -0.000000 -0.000000 -9.103593 -0.043107 -1.865106 0.154757 -4.068804 39.122678 6.509704 -4.273580 113.462863 2.549561 -4.153917 63.067337 -0.000000 0.000000 -0.000000 -8.076693 -0.486727 -3.806302 -4.198887 -8.025508 44.637759 4.252907 -4.639638 85.014846 6.935979 -4.062626 119.322285 0.000001 -0.000000 0.000000 4.570401 11.014688 -2.160811 -2.108509 -7.635669 0.763106 -31.262630 -16.751051 -49.605598 0.000103 -93.017942 0.000144 0.837974 -8.966214 1.745001 2.466110 -1.576219 2.681689 -6.141114 -11.690717 -6.761670 9.914077 42.595512 3.409813 2.647881 -1.528755 1.528745 -0.422782 8.108098 27.509118 1.998921 -1.154083 1.154075 0.000001 0.000002 0.000001 9.109288 -0.518008 2.259897 0.255270 3.378298 -45.814341 5.654090 5.847946 -88.067448 2.162102 4.544913 -50.866359 0.000001 0.000000 0.000000 9.533412 0.000005 -0.000011 -0.461506 3.841665 -39.722673 6.450764 5.820563 -95.892885 2.182870 4.561666 -51.127712 -0.000001 -0.000000 -0.000001 9.104497 -0.043008 -1.865109 0.469687 4.966900 -39.799427 8.181090 5.368843 -113.502998 3.200473 5.218259 -63.022982 -0.000000 0.000001 -0.000002 8.077803 -0.486879 -3.806304 -3.762461 9.063785 -45.253797 5.342520 5.829161 -85.005297 8.716896 5.103538 -119.369194 -0.000001 -0.000000 0.000001 -8.207804 -6.751707 -1.599545 -62.406796 -5.253345 -22.169500 71.299088 0.618021 1.274672 -22.536636 -1.711229 8.113787 -0.034539 -0.000002 -0.000003 0.000000 0.000001 -0.000000 8.207795 -6.751707 -1.599544 -61.340891 -6.314319 24.493943 71.752421 10.303330 1.278817 -23.217768 -9.318471 -22.328283 -1.604793 -0.000003 0.000001 0.000000 0.000000 0.000000 
5.940090 82.404938 -4.149450 26.564289 -57.474751 19.187391 0.000000 10.181552 0.131527 16.771453 2.229519 -4.140146 17.763160 1.736787 -5.782078 17.744551 1.769150 -5.856027 0.000002 16.740360 -2.049018 9.590661 1.617546 -0.388980 0.000004 9.617850 1.684990 -18.030298 26.124309 -2.851197 -0.000004 22.037384 7.501073 0.000002 -0.000002 0.000002 -4.569998 11.014873 -2.160839 11.069333 27.130563 1.949251 -50.789126 22.613544 49.431237 0.000228 106.622559 -0.000157 -15.877232 1.978023 -14.243046 -2.464796 -1.574015 2.681911 -7.341117 13.749645 7.412345 9.855773 -44.489107 -3.903157 -2.646251 -1.527801 1.527836 -0.115744 -14.513039 -28.973891 -1.994597 -1.151583 1.151571 -0.000000 -0.000001 -0.000000 -9.108294 -0.517873 2.259804 -0.124365 -2.384774 45.108871 4.500561 -4.654524 88.071178 1.723207 -3.618371 50.920133 -0.000000 -0.000000 -0.000001 -9.532497 0.000002 0.000005 -0.761626 -2.932897 39.031065 5.133874 -4.632756 95.881670 1.739746 -3.631686 51.181346 0.000000 0.000000 0.000000 -9.103593 -0.043111 -1.865101 0.154757 -4.068804 39.122678 6.509703 -4.273581 113.462863 2.549562 -4.153917 63.067337 -0.000000 0.000000 -0.000000 -8.076700 -0.486723 -3.806293 -4.198886 -8.025506 44.637759 4.252906 -4.639639 85.014839 6.935981 -4.062627 119.322271 -0.000000 0.000000 0.000004 4.570401 11.014687 -2.160813 -2.030715 -7.706351 1.036585 -30.052942 -16.645743 -46.800962 0.000183 -91.553959 0.000090 -0.375405 -12.772543 -0.009142 2.466100 -1.576225 2.681701 -6.141114 -11.690718 -6.761669 9.914078 42.595512 3.409808 2.647881 -1.528755 1.528754 -0.422782 8.108096 27.509115 1.998921 -1.154085 1.154077 -0.000003 0.000001 0.000001 9.109280 -0.518012 2.259907 0.255270 3.378300 -45.814341 5.654091 5.847947 -88.067455 2.162101 4.544916 -50.866359 -0.000000 -0.000000 -0.000000 9.533401 0.000009 0.000008 -0.461505 3.841668 -39.722676 6.450764 5.820560 -95.892892 2.182868 4.561672 -51.127712 0.000000 -0.000001 0.000001 9.104505 -0.043004 -1.865095 0.469686 4.966900 -39.799430 8.181089 5.368846 -113.503004 3.200478 5.218254 -63.022982 0.000001 0.000001 -0.000001 8.077806 -0.486883 -3.806291 -3.762461 9.063785 -45.253797 5.342520 5.829164 -85.005290 8.716895 5.103541 -119.369194 -0.000001 -0.000000 0.000000 -8.207801 -6.751699 -1.599550 -58.061983 -4.947595 -22.694074 68.937051 1.026034 0.089599 -22.008792 -2.069229 9.455431 -0.023759 0.000024 -0.000002 0.000000 -0.000000 0.000000 8.207801 -6.751703 -1.599550 -57.502652 -3.499689 24.006421 71.013368 10.280093 1.070300 -24.347633 -9.681894 -21.186724 -1.603338 -0.000009 0.000010 -0.000000 -0.000003 0.000000 
